<svg width="22" height="24" viewBox="0 0 22 24" fill="none" xmlns="http://www.w3.org/2000/svg">
<path d="M14.75 15C14.75 16.2609 14.3761 17.4934 13.6756 18.5418C12.9751 19.5901 11.9795 20.4072 10.8146 20.8897C9.64971 21.3722 8.36792 21.4985 7.13129 21.2525C5.89466 21.0065 4.75874 20.3994 3.86718 19.5078C2.97562 18.6162 2.36846 17.4803 2.12248 16.2437C1.8765 15.0071 2.00275 13.7253 2.48526 12.5604C2.96776 11.3955 3.78486 10.3999 4.83323 9.69938C5.88159 8.99889 7.11413 8.625 8.37499 8.625C9.21216 8.625 10.0411 8.78989 10.8146 9.11027C11.588 9.43064 12.2908 9.90022 12.8828 10.4922C13.4748 11.0842 13.9443 11.7869 14.2647 12.5604C14.5851 13.3338 14.75 14.1628 14.75 15ZM9.87499 19.875C12.875 19.875 13.25 15.375 13.25 15.375V15.33C13.2498 14.993 13.1738 14.6603 13.0278 14.3565C12.8818 14.0527 12.6693 13.7857 12.4062 13.575L11.9525 13.2113C12.0653 12.9468 12.1239 12.6625 12.125 12.375C12.125 11.7783 11.8879 11.206 11.466 10.784C11.044 10.3621 10.4717 10.125 9.87499 10.125C9.27825 10.125 8.70595 10.3621 8.284 10.784C7.86204 11.206 7.62499 11.7783 7.62499 12.375C7.62499 13.6163 9.49999 14.625 10.25 14.625V15L9.49999 15.375L7.86499 14.6175C7.77679 14.5639 7.67567 14.5354 7.57249 14.535C7.44574 14.5345 7.32238 14.5759 7.22163 14.6528C7.12087 14.7297 7.04837 14.8378 7.01542 14.9601C6.98247 15.0825 6.99092 15.2124 7.03945 15.3295C7.08798 15.4466 7.17387 15.5443 7.28374 15.6075L9.49999 16.875V17.25L7.32499 16.95C7.18951 16.9281 7.05061 16.9433 6.92314 16.9942C6.79566 17.045 6.6844 17.1296 6.60124 17.2388L5.74999 18.375L4.99999 18.75L5.68249 19.2075C5.81184 19.2933 5.96463 19.3369 6.11979 19.3322C6.27494 19.3275 6.42482 19.2747 6.54874 19.1813L7.62499 18.375C7.62499 18.375 8.74999 19.875 9.87499 19.875Z" fill="#FF7D85"/>
<path d="M13.25 15.33V15.375C13.25 15.375 12.875 19.875 9.875 19.875C8.75 19.875 7.625 18.375 7.625 18.375L6.54875 19.1812C6.42483 19.2747 6.27495 19.3274 6.1198 19.3321C5.96465 19.3368 5.81185 19.2933 5.6825 19.2075L5 18.75L5.75 18.375L6.60125 17.2387C6.68441 17.1295 6.79567 17.045 6.92315 16.9941C7.05062 16.9433 7.18952 16.928 7.325 16.95L9.5 17.25V16.875L7.28375 15.6075C7.17388 15.5443 7.08799 15.4465 7.03946 15.3294C6.99093 15.2123 6.98248 15.0825 7.01543 14.9601C7.04838 14.8377 7.12088 14.7297 7.22164 14.6528C7.3224 14.5759 7.44575 14.5344 7.5725 14.535C7.67568 14.5354 7.7768 14.5639 7.865 14.6175L9.5 15.375L10.25 15V14.625C10.82 14.625 11.6113 14.04 11.9525 13.2112L12.4062 13.575C12.6694 13.7856 12.8818 14.0527 13.0278 14.3565C13.1739 14.6602 13.2498 14.9929 13.25 15.33Z" fill="#FFCDB0"/>
<path d="M11.9525 13.2112C11.6113 14.04 10.82 14.625 10.25 14.625C9.5 14.625 7.625 13.6163 7.625 12.375C7.625 11.7783 7.86205 11.206 8.28401 10.784C8.70597 10.3621 9.27826 10.125 9.875 10.125C10.4717 10.125 11.044 10.3621 11.466 10.784C11.8879 11.206 12.125 11.7783 12.125 12.375C12.1239 12.6625 12.0653 12.9468 11.9525 13.2112Z" fill="#FFCDB0"/>
<path d="M10.625 13.875C9.875 13.875 8 12.8663 8 11.625C8.00058 11.4188 8.0296 11.2136 8.08625 11.0153C7.7873 11.4055 7.6252 11.8834 7.625 12.375C7.625 13.6163 9.5 14.625 10.25 14.625C10.82 14.625 11.6113 14.04 11.9525 13.2113C11.9844 13.1344 12.0119 13.0557 12.035 12.9758C11.8792 13.2189 11.6725 13.4253 11.429 13.5806C11.1855 13.7359 10.9112 13.8363 10.625 13.875Z" fill="#FEC09B"/>
<path d="M21.5 23.625H5.75V22.5C5.75 22.5 0.5 21 0.5 15.75C0.5 9.375 6.125 6 6.125 6C4.625 6 3.875 5.25 3.875 3.75C3.875 2.25 5.375 0.75 5.375 0.75V0.375H20C20 0.375 17 8.625 17.375 11.625C17.75 14.625 21.5 17.625 21.5 23.625ZM14.75 15C14.75 13.7391 14.3761 12.5066 13.6756 11.4582C12.9751 10.4099 11.9795 9.59278 10.8146 9.11027C9.64973 8.62776 8.36793 8.50151 7.1313 8.74749C5.89467 8.99347 4.75875 9.60063 3.86719 10.4922C2.97563 11.3838 2.36847 12.5197 2.12249 13.7563C1.87651 14.9929 2.00276 16.2747 2.48527 17.4396C2.96778 18.6045 3.78488 19.6001 4.83324 20.3006C5.8816 21.0011 7.11414 21.375 8.375 21.375C9.21218 21.375 10.0412 21.2101 10.8146 20.8897C11.5881 20.5694 12.2908 20.0998 12.8828 19.5078C13.4748 18.9158 13.9444 18.2131 14.2647 17.4396C14.5851 16.6662 14.75 15.8372 14.75 15Z" fill="#FEC09B"/>
<path d="M20 0.375H18.5C18.5 0.375 15.875 6.75 15.875 10.875C15.875 15 17.75 16.875 18.5 18.375C19.25 19.875 18.875 23.625 18.875 23.625H21.5C21.5 17.625 17.75 14.625 17.375 11.625C17 8.625 20 0.375 20 0.375Z" fill="#FFD6BD"/>
<path d="M17 23.0625C17 22.9133 16.9407 22.7702 16.8352 22.6648C16.7298 22.5593 16.5867 22.5 16.4375 22.5H5.75V23.625H16.4375C16.5867 23.625 16.7298 23.5657 16.8352 23.4602C16.9407 23.3548 17 23.2117 17 23.0625Z" fill="#EBA47A"/>
<path d="M8.37499 8.625C7.11413 8.625 5.88159 8.99889 4.83323 9.69938C3.78486 10.3999 2.96776 11.3955 2.48526 12.5604C2.00275 13.7253 1.8765 15.0071 2.12248 16.2437C2.36846 17.4803 2.97562 18.6162 3.86718 19.5078C4.75874 20.3994 5.89466 21.0065 7.13129 21.2525C8.36792 21.4985 9.64971 21.3722 10.8146 20.8897C11.9795 20.4072 12.9751 19.5901 13.6756 18.5418C14.3761 17.4934 14.75 16.2609 14.75 15C14.75 14.1628 14.5851 13.3338 14.2647 12.5604C13.9443 11.7869 13.4748 11.0842 12.8828 10.4922C12.2908 9.90022 11.588 9.43064 10.8146 9.11027C10.0411 8.78989 9.21216 8.625 8.37499 8.625ZM8.37499 20.625C7.26247 20.625 6.17493 20.2951 5.2499 19.677C4.32488 19.0589 3.60391 18.1804 3.17816 17.1526C2.75242 16.1248 2.64103 14.9938 2.85807 13.9026C3.07511 12.8115 3.61084 11.8092 4.39751 11.0225C5.18418 10.2359 6.18646 9.70012 7.2776 9.48308C8.36875 9.26604 9.49975 9.37743 10.5276 9.80318C11.5554 10.2289 12.4339 10.9499 13.052 11.8749C13.6701 12.7999 14 13.8875 14 15C14 16.4918 13.4074 17.9226 12.3525 18.9775C11.2976 20.0324 9.86683 20.625 8.37499 20.625Z" fill="#FF505B"/>
<path d="M10.6321 15.3678L11 15C11 15 12.0748 13.8318 12.1141 13.3406L11.9525 13.2112C11.6113 14.04 10.82 14.625 10.25 14.625V15L9.5 15.375L9.76663 15.5081C9.90737 15.5785 10.0667 15.6028 10.222 15.5776C10.3773 15.5524 10.5208 15.4791 10.6321 15.3678Z" fill="#EBA47A"/>
<path d="M11 16.9635C11 16.9147 10.9875 16.8667 10.9637 16.824C10.9399 16.7814 10.9056 16.7455 10.864 16.7198C10.8225 16.6942 10.7751 16.6796 10.7263 16.6774C10.6775 16.6752 10.6289 16.6855 10.5852 16.7074L10.25 16.875H9.5V17.25H10.7135C10.7511 17.25 10.7884 17.2426 10.8231 17.2282C10.8579 17.2138 10.8895 17.1927 10.9161 17.1661C10.9427 17.1395 10.9638 17.1079 10.9782 17.0732C10.9926 17.0384 11 17.0011 11 16.9635Z" fill="#FEC09B"/>
<path d="M7.625 18L6.5495 18.8066C6.42538 18.8997 6.27545 18.952 6.12038 18.9563C5.9653 18.9606 5.81271 18.9167 5.68363 18.8306L5.32138 18.5891L5 18.75L5.6825 19.2075C5.81185 19.2933 5.96465 19.3369 6.1198 19.3322C6.27495 19.3275 6.42483 19.2747 6.54875 19.1813L7.625 18.375C7.625 18.375 8.75 19.875 9.875 19.875C10.2822 19.8765 10.6843 19.7837 11.0496 19.6039C11.415 19.4241 11.7338 19.1621 11.981 18.8385C11.3438 19.2283 10.6206 19.4555 9.875 19.5C8.75 19.5 7.625 18 7.625 18Z" fill="#FEC09B"/>
</svg>
